<svg id="Capa_1" enable-background="new 0 0 512 512" height="512" viewBox="0 0 512 512" width="512" xmlns="http://www.w3.org/2000/svg" xmlns:xlink="http://www.w3.org/1999/xlink"><linearGradient id="SVGID_1_" gradientUnits="userSpaceOnUse" x1="256" x2="256" y1="512" y2="0"><stop offset="0" stop-color="#5558ff"/><stop offset="1" stop-color="#00c0ff"/></linearGradient><g><g><path d="m406 90h-180c-8.291 0-15 6.709-15 15v90c0 8.291 6.709 15 15 15h180c8.291 0 15-6.709 15-15v-90c0-8.291-6.709-15-15-15zm-15 90h-150v-60h150zm15-180c-77.493 0-252.633 0-330 0-8.291 0-15 6.709-15 15v45h-15c-8.291 0-15 6.709-15 15s6.709 15 15 15h15v60h-15c-8.291 0-15 6.709-15 15s6.709 15 15 15h15v61h-15c-8.291 0-15 6.709-15 15s6.709 15 15 15h15v61h-15c-8.291 0-15 6.709-15 15s6.709 15 15 15h15v60h-15c-8.291 0-15 6.709-15 15s6.709 15 15 15h15v45c0 8.291 6.709 15 15 15h330c41.353 0 75-33.647 75-75v-362c0-41.353-33.647-75-75-75zm-255 482h-60v-30h15c8.291 0 15-6.709 15-15s-6.709-15-15-15h-15v-60h15c8.291 0 15-6.709 15-15s-6.709-15-15-15h-15v-61h15c8.291 0 15-6.709 15-15s-6.709-15-15-15h-15v-61h15c8.291 0 15-6.709 15-15s-6.709-15-15-15h-15v-60h15c8.291 0 15-6.709 15-15s-6.709-15-15-15h-15v-30h60zm300-45c0 24.814-20.186 45-45 45h-225v-452h225c24.814 0 45 20.186 45 45zm-45-196h-180c-8.291 0-15 6.709-15 15s6.709 15 15 15h180c8.291 0 15-6.709 15-15s-6.709-15-15-15z" fill="url(#SVGID_1_)"/></g></g></svg>